<svg xmlns="http://www.w3.org/2000/svg" viewBox="0 0 64 64"><defs><style>.cls-1{fill:#5dad00;}.cls-2{fill:#74d800;}.cls-3{fill:#f7f6f8;}</style></defs><title>Question</title><g id="Layer_2" data-name="Layer 2"><g id="Layer_1-2" data-name="Layer 1"><circle class="cls-1" cx="32" cy="32" r="32"/><circle class="cls-2" cx="32" cy="32" r="24"/><path class="cls-3" d="M32.32,16c6,0,9.68,2.79,9.68,7.83,0,5.93-5.17,7.33-6.55,11.11a2.9,2.9,0,0,1-2.71,1.95h0a2.87,2.87,0,0,1-2.62-4c1.47-3.2,4.45-4.28,4.71-7.32a3,3,0,0,0-3.09-3.35,3.13,3.13,0,0,0-3.37,2.11,2.9,2.9,0,0,1-2.74,2h-.3a2.89,2.89,0,0,1-2.71-3.77C23.9,18.34,27.33,16,32.32,16ZM32.1,40.48a3.76,3.76,0,1,1,0,7.52,3.76,3.76,0,0,1,0-7.52Z"/></g></g></svg>